<svg width="16" height="16" viewBox="0 0 16 16" fill="none" xmlns="http://www.w3.org/2000/svg">
<path d="M8.79393 14.0454C8.21665 14.6227 7.56467 14.9076 6.838 14.9C6.14677 14.8924 5.52644 14.6139 4.97701 14.0644L2.31845 11.4059L2.75521 8.00672C3.3325 7.42943 3.98448 7.14459 4.71115 7.15218C5.40238 7.15978 6.0227 7.4383 6.57214 7.98773L6.19235 9.05115L6.15437 9.08913L5.81255 8.74732C5.47327 8.40804 5.1074 8.22447 4.71495 8.19662C4.22881 8.16117 3.80344 8.32575 3.43884 8.69035C3.07171 9.05748 2.90713 9.48285 2.94511 9.96646C2.97296 10.3589 3.15653 10.7248 3.49581 11.0641L5.73659 13.3048C6.07081 13.6391 6.43668 13.8226 6.8342 13.8555C7.31527 13.8961 7.74064 13.7315 8.1103 13.3618C8.47237 12.9997 8.63695 12.5744 8.60404 12.0857C8.57618 11.6933 8.39262 11.3274 8.05334 10.9881L7.81786 10.7526L6.43921 12.1313L6.40123 12.0933L6.16196 11.4211L8.08372 9.49931L9.2307 10.6463L8.79393 14.0454ZM12.2311 10.6083L6.53416 4.9114L6.91395 3.84798L6.95193 3.81L12.4589 9.31701C12.9704 8.58274 13.2755 7.86493 13.3742 7.16358C13.4932 6.31031 13.3413 5.67226 12.9185 5.24942C12.5463 4.87722 12.0007 4.79746 11.2816 5.01015C10.8942 5.12409 10.5612 5.25955 10.2827 5.41653C10.5233 4.55313 10.4435 3.92141 10.0435 3.52136C9.78773 3.26563 9.38261 3.23271 8.82811 3.42261C8.31919 3.59225 7.84318 3.84798 7.40009 4.18979L7.85584 2.90609L7.89382 2.86811C8.3673 2.582 8.81166 2.42122 9.2269 2.38577C9.77127 2.33767 10.2118 2.48199 10.5486 2.81874C10.8448 3.11498 10.9562 3.56567 10.8828 4.1708C11.174 4.00623 11.4981 3.90495 11.8551 3.86697C12.5134 3.79607 13.0489 3.96698 13.4616 4.37969C14.0743 4.99242 14.2794 5.82797 14.0769 6.88633C13.8262 8.16497 13.2236 9.39297 12.269 10.5703L12.2311 10.6083Z" fill="black"/>
</svg>
